<?xml version="1.0" encoding="UTF-8"?>
<svg id="Layer_2" data-name="Layer 2" xmlns="http://www.w3.org/2000/svg" viewBox="0 0 812 812">
  <defs>
    <style>
      .cls-1 {
        fill: #fff;
      }
    </style>
  </defs>
  <g id="Layer_2-2" data-name="Layer 2">
    <g id="Layer_1-2" data-name="Layer 1-2">
      <g>
        <path class="cls-1" d="M406,806c-53.99,0-106.37-10.58-155.71-31.44-9.58-4.06-19.06-8.51-28.17-13.23-36.41-18.84-69.7-43.22-98.96-72.49-7.5-7.5-14.75-15.34-21.56-23.33-26.61-31.12-48.19-66.05-64.15-103.81-20.86-49.33-31.44-101.72-31.44-155.71s10.58-106.37,31.44-155.71c20.14-47.63,48.98-90.4,85.71-127.14,36.73-36.73,79.51-65.57,127.14-85.71,49.33-20.86,101.72-31.44,155.71-31.44s106.37,10.58,155.71,31.44c47.62,20.14,90.4,48.98,127.14,85.71,36.73,36.73,65.57,79.51,85.71,127.14,20.86,49.33,31.44,101.72,31.44,155.71s-10.58,106.37-31.44,155.71c-15.96,37.75-37.54,72.68-64.16,103.81-6.81,7.98-14.06,15.83-21.56,23.32-29.27,29.27-62.57,53.66-98.97,72.49-9.11,4.72-18.59,9.17-28.17,13.23-49.33,20.87-101.72,31.45-155.71,31.45ZM406,54c-47.54,0-93.64,9.3-137.01,27.66-41.91,17.72-79.55,43.1-111.88,75.45-32.34,32.33-57.73,69.98-75.45,111.88-18.35,43.38-27.66,89.48-27.66,137.01s9.3,93.63,27.66,137.01c14.04,33.21,33.02,63.94,56.43,91.32,6.03,7.07,12.43,13.98,19.02,20.56,25.76,25.77,55.05,47.23,87.08,63.81,7.96,4.12,16.32,8.04,24.83,11.66,43.37,18.34,89.46,27.64,137,27.64s93.64-9.3,137.01-27.66c8.47-3.59,16.82-7.5,24.79-11.63,32.04-16.58,61.34-38.05,87.1-63.81,6.62-6.61,13.01-13.52,18.99-20.54,23.42-27.4,42.42-58.13,56.46-91.35,18.35-43.38,27.66-89.48,27.66-137.01s-9.3-93.64-27.66-137.01c-17.72-41.91-43.1-79.55-75.45-111.88-32.33-32.34-69.97-57.72-111.88-75.45-43.38-18.35-89.47-27.66-137.01-27.66Z"/>
        <path class="cls-1" d="M406,12c53.18,0,104.78,10.42,153.37,30.97,46.92,19.84,89.05,48.25,125.23,84.43,36.18,36.18,64.59,78.32,84.43,125.23,20.55,48.59,30.97,100.19,30.97,153.37s-10.42,104.78-30.97,153.37c-15.77,37.31-36.97,71.58-63.19,102.25-6.74,7.9-13.83,15.57-21.24,22.98-28.89,28.89-61.58,52.83-97.48,71.4-9.05,4.69-18.3,9.03-27.75,13.03-48.59,20.55-100.19,30.97-153.37,30.97s-104.78-10.42-153.37-30.97c-9.45-4-18.7-8.34-27.75-13.03-35.89-18.57-68.59-42.51-97.48-71.4-7.41-7.41-14.5-15.08-21.24-22.98-26.22-30.67-47.42-64.94-63.19-102.25-20.55-48.59-30.97-100.19-30.97-153.37s10.42-104.78,30.97-153.37c19.84-46.91,48.25-89.05,84.43-125.23,36.18-36.18,78.32-64.59,125.23-84.43,48.59-20.55,100.19-30.97,153.37-30.97M406,764c48.33,0,95.22-9.46,139.35-28.13,8.57-3.63,17.06-7.61,25.21-11.83,32.58-16.86,62.37-38.68,88.58-64.9,6.72-6.71,13.22-13.74,19.31-20.89,23.83-27.87,43.14-59.12,57.42-92.9,18.67-44.13,28.13-91.02,28.13-139.35s-9.46-95.22-28.13-139.35c-18.02-42.62-43.84-80.91-76.73-113.79-32.89-32.9-71.18-58.71-113.79-76.73-44.13-18.67-91.02-28.13-139.35-28.13s-95.22,9.46-139.35,28.13c-42.62,18.02-80.91,43.84-113.79,76.73-32.89,32.88-58.71,71.17-76.73,113.79-18.67,44.13-28.13,91.02-28.13,139.35s9.46,95.22,28.13,139.35c14.28,33.78,33.59,65.03,57.39,92.88,6.12,7.17,12.62,14.2,19.34,20.91,26.2,26.21,56,48.04,88.56,64.89,8.17,4.23,16.66,8.21,25.24,11.85,44.12,18.66,91.01,28.12,139.34,28.12M406,0c-54.79,0-107.97,10.74-158.04,31.92-48.35,20.45-91.76,49.72-129.04,87-37.28,37.28-66.55,80.7-87,129.04C10.74,298.03,0,351.21,0,406s10.74,107.97,31.92,158.04c16.2,38.32,38.11,73.78,65.12,105.37,6.9,8.09,14.27,16.06,21.88,23.67,29.7,29.7,63.49,54.45,100.45,73.57,9.24,4.79,18.86,9.31,28.59,13.42,50.08,21.18,103.25,31.92,158.05,31.92s107.97-10.74,158.04-31.92c9.73-4.12,19.35-8.64,28.6-13.43,36.94-19.11,70.74-43.86,100.44-73.57,7.61-7.61,14.97-15.57,21.88-23.68,27.01-31.59,48.92-67.04,65.11-105.37,21.18-50.08,31.92-103.25,31.92-158.04s-10.74-107.97-31.92-158.04c-20.45-48.35-49.72-91.76-87-129.04-37.29-37.29-80.7-66.56-129.04-87C513.97,10.74,460.79,0,406,0h0ZM406,752c-46.73,0-92.03-9.14-134.67-27.17-8.35-3.54-16.56-7.4-24.4-11.45-31.48-16.29-60.27-37.39-85.59-62.72-6.49-6.48-12.78-13.28-18.7-20.22-23.01-26.92-41.66-57.12-55.46-89.76-18.04-42.64-27.18-87.95-27.18-134.68s9.15-92.04,27.18-134.67c17.42-41.19,42.37-78.19,74.16-109.98,31.79-31.8,68.79-56.75,109.98-74.16,42.63-18.04,87.95-27.18,134.68-27.18s92.04,9.15,134.67,27.18c41.2,17.42,78.2,42.38,109.98,74.16,31.8,31.79,56.75,68.79,74.16,109.98,18.04,42.63,27.18,87.95,27.18,134.68s-9.15,92.04-27.18,134.67c-13.8,32.66-32.47,62.86-55.49,89.78-5.89,6.91-12.16,13.7-18.67,20.2-25.33,25.34-54.13,46.44-85.62,62.73-7.84,4.06-16.04,7.91-24.38,11.44-42.63,18.03-87.94,27.18-134.67,27.18h0Z"/>
      </g>
    </g>
    <g>
      <path class="cls-1" d="M648.87,419.01c-19.55-16.51-38.23-1.6-46.27,4.82l-.52.42c-1.44,1.14-2.8,2.23-3.87,2.94-57.66,38.37-128.73,35.26-181.07-7.93-51.47-42.48-67.94-110.02-41.97-172.09,3.47-8.31,8-14.89,12.78-21.86l.09-.14c3.21-4.67,6.53-9.5,9.84-15.18,5.74-9.96,6.15-21.62,1.11-31.17-4.86-9.27-13.91-15.1-24.82-15.97-11.89-.96-36.63,9.51-46.73,14.06-81,36.73-136.09,117.83-140.35,206.63v24.87c6.12,102.35,79.58,191.68,178.64,217.25,19.58,5.04,39.67,7.6,59.67,7.6,40.32,0,80.53-10.44,116.27-30.21,54.19-29.94,93.98-78.54,112.05-136.9.24-.79.51-1.6.81-2.49l.23-.68c1.79-5.42,4.37-13.2,4.37-21.32s-2.41-16.01-10.27-22.64ZM396.38,444.44c63.69,52.55,150.01,56.43,219.89,9.92,2.29-1.51,4.38-3.18,6.41-4.8l.38-.32c.88-.7,1.65-1.31,2.33-1.82-.4,1.45-.95,3.24-1.69,5.46l-.39,1.22c-.27.83-.53,1.64-.76,2.4-15.57,50.23-49.9,92.13-96.66,117.97-46.76,25.86-100.75,32.8-152.01,19.56-85.33-22.03-148.69-98.95-154.14-187.09l-.02-22.27c3.81-76.51,51.38-146.38,121.22-178.05,9.88-4.48,21.06-8.54,27.08-10.31-2.15,3.48-4.4,6.78-6.76,10.23l-.09.13c-2.76,4.02-5.57,8.1-8.31,12.63-2.72,4.52-5.36,9.49-7.78,15.26-31.65,75.65-11.52,158.04,51.3,209.89Z"/>
      <path class="cls-1" d="M372.57,162.77c.56,0,1.1.02,1.61.06,10.92.87,19.97,6.7,24.82,15.97,5.04,9.55,4.63,21.21-1.11,31.17-3.31,5.68-6.63,10.51-9.84,15.18l-.09.14c-4.78,6.97-9.31,13.56-12.78,21.86-25.98,62.07-9.5,129.61,41.97,172.09,27.94,23.06,61.21,34.69,94.94,34.69,29.45,0,59.25-8.87,86.12-26.76,1.08-.71,2.43-1.79,3.87-2.94l.52-.42c5.36-4.28,15.45-12.34,27.37-12.34,5.96,0,12.38,2.01,18.89,7.51,7.86,6.63,10.27,14.79,10.27,22.64s-2.57,15.91-4.37,21.32l-.23.68c-.3.89-.57,1.7-.81,2.49-18.07,58.35-57.85,106.95-112.05,136.9-35.74,19.77-75.95,30.21-116.27,30.21-20,0-40.09-2.55-59.67-7.6-99.06-25.57-172.52-114.91-178.63-217.25v-.28s0-24.59,0-24.59c4.26-88.8,59.36-169.91,140.35-206.63,9.66-4.35,32.73-14.12,45.12-14.12h0ZM425.4,600.59c34.75,0,69.24-8.83,100.5-26.12,46.76-25.85,81.09-67.74,96.66-117.97.23-.76.49-1.57.76-2.4l.39-1.22c.74-2.22,1.29-4.01,1.69-5.46-.68.51-1.45,1.12-2.33,1.82l-.38.32c-2.03,1.63-4.12,3.3-6.41,4.8-32.51,21.64-68.57,32.37-104.26,32.37-41.03,0-81.57-14.19-115.63-42.29-62.82-51.84-82.96-134.23-51.3-209.89,2.42-5.77,5.05-10.73,7.78-15.26,2.73-4.52,5.55-8.6,8.31-12.63l.09-.13c2.36-3.45,4.62-6.74,6.76-10.23-6.02,1.77-17.21,5.83-27.08,10.31-69.84,31.66-117.41,101.54-121.22,178.05l.02,22.27c5.45,88.13,68.82,165.06,154.14,187.09,16.99,4.39,34.29,6.56,51.52,6.56h0ZM372.57,150.77h0c-13.48,0-34.65,8.25-50.04,15.17-85.09,38.58-142.94,123.75-147.42,217v.29s-.01.29-.01.29v25s.02.28.02.28v.16s.01.16.01.16c6.42,107.48,83.57,201.3,187.61,228.16,20.56,5.3,41.64,7.98,62.67,7.98,42.36,0,84.58-10.97,122.08-31.71,56.91-31.45,98.71-82.53,117.7-143.85.22-.73.46-1.43.71-2.2l.22-.63.02-.06.02-.06c1.98-5.98,4.97-15.03,4.97-25.09,0-12.79-5.02-23.79-14.53-31.81-8.13-6.86-17.09-10.34-26.63-10.34-16.14,0-28.79,10.1-34.86,14.96l-.52.42-.25.2c-.96.77-2.17,1.72-2.72,2.08l-.04.02-.04.02c-24.33,16.19-51.81,24.75-79.47,24.75-31.79,0-61.98-11.05-87.31-31.95-23.24-19.18-39.15-44.18-46.01-72.29-6.86-28.13-4.28-57.84,7.47-85.92,3-7.16,6.98-12.97,11.6-19.69l.05-.07.05-.08.05-.07.15-.22c3.27-4.77,6.65-9.7,10.11-15.64v-.02s.03-.02.03-.02c7.81-13.55,8.31-29.53,1.33-42.76-6.8-12.98-19.37-21.13-34.48-22.34-.82-.07-1.69-.1-2.57-.1h0ZM231.72,384.98c3.55-69.02,44.91-132.28,106.26-163.61-1.44,2.83-2.76,5.67-3.97,8.55-16.53,39.51-20.11,81.47-10.37,121.36,9.75,39.91,32.27,75.32,65.1,102.42,17.84,14.72,37.61,26.07,58.76,33.71,20.77,7.51,42.48,11.32,64.51,11.32,30.96,0,61.65-7.58,89.96-22.08-17.02,36.7-45.44,67.18-81.89,87.33-29.13,16.11-61.87,24.62-94.69,24.62-16.32,0-32.64-2.08-48.51-6.18-80.22-20.71-139.85-92.99-145.14-175.85l-.02-21.59h0Z"/>
    </g>
  </g>
</svg>