<?xml version="1.0" encoding="UTF-8"?>
<svg id="Layer_2" data-name="Layer 2" xmlns="http://www.w3.org/2000/svg" viewBox="0 0 800 800">
  <defs>
    <style>
      .cls-1 {
        fill: #fff;
      }
    </style>
  </defs>
  <g id="Layer_2-2" data-name="Layer 2">
    <g id="Layer_1-2" data-name="Layer 1-2">
      <path class="cls-1" d="M768.56,244.29c-20.15-47.63-48.99-90.4-85.72-127.13-36.74-36.74-79.51-65.58-127.13-85.72C506.37,10.58,453.99,0,400,0s-106.37,10.58-155.71,31.44c-47.63,20.15-90.4,48.98-127.13,85.72-36.73,36.73-65.57,79.5-85.72,127.13C10.58,293.63,0,346.01,0,400s10.58,106.37,31.44,155.71c15.96,37.75,37.55,72.68,64.16,103.8,6.81,7.99,14.06,15.84,21.56,23.33,29.26,29.26,62.56,53.65,98.96,72.49,9.11,4.72,18.59,9.17,28.17,13.22,49.34,20.87,101.72,31.45,155.71,31.45s106.37-10.58,155.71-31.45c9.58-4.05,19.06-8.5,28.17-13.22,36.39-18.83,69.69-43.22,98.96-72.49,7.5-7.5,14.76-15.35,21.56-23.32,26.61-31.13,48.2-66.06,64.16-103.81,20.86-49.34,31.44-101.73,31.44-155.71s-10.58-106.38-31.44-155.71ZM400,752c-47.53,0-93.62-9.3-137-27.65-8.44-3.57-16.79-7.49-24.82-11.65-32.02-16.57-61.32-38.03-87.08-63.8-6.61-6.61-13-13.53-19.02-20.57-23.4-27.38-42.39-58.1-56.43-91.32-18.35-43.39-27.65-89.48-27.65-137.01s9.3-93.63,27.65-137.01c17.73-41.91,43.11-79.56,75.45-111.89,32.34-32.34,69.98-57.72,111.89-75.45,43.39-18.35,89.48-27.65,137.01-27.65s93.62,9.3,137.01,27.65c41.9,17.72,79.55,43.1,111.89,75.45,32.34,32.33,57.72,69.98,75.45,111.89,18.35,43.39,27.65,89.48,27.65,137.01s-9.3,93.62-27.66,137.02c-14.03,33.21-33.03,63.94-56.45,91.34-5.99,7.02-12.38,13.93-18.99,20.54-25.77,25.77-55.08,47.24-87.11,63.81-8,4.15-16.34,8.06-24.78,11.64-43.39,18.35-89.48,27.65-137.01,27.65Z"/>
    </g>
    <g>
      <g>
        <path class="cls-1" d="M659.15,404.08c-3.95,9.73-10.38,13.4-20.71,14.21-10.25.8-48.04,1.29-56.2-1.56-14.99-5.24-14.98-28.15,0-33.38,8.16-2.85,45.95-2.37,56.2-1.56,10.33.81,16.76,4.48,20.71,14.21v8.1Z"/>
        <path class="cls-1" d="M615.11,381.16c9.81,0,19.01.28,23.32.62,10.33.81,16.76,4.48,20.71,14.21v8.1c-3.95,9.73-10.38,13.4-20.71,14.21-4.32.34-13.51.62-23.33.62-13.5,0-28.15-.53-32.88-2.18-14.99-5.24-14.98-28.15,0-33.38,4.72-1.65,19.38-2.18,32.88-2.18h0ZM615.11,369.16v12-12h0c-28.67,0-34.82,2.15-36.84,2.85-11.71,4.09-19.28,15.09-19.28,28.02,0,12.93,7.57,23.93,19.28,28.02,2.02.71,8.17,2.85,36.83,2.85,9.5,0,19.25-.26,24.26-.66,15.36-1.2,25.46-8.29,30.89-21.65l.88-2.17v-12.79l-.88-2.17c-5.43-13.37-15.54-20.45-30.89-21.65-5.01-.39-14.76-.66-24.26-.66h0Z"/>
      </g>
      <g>
        <path class="cls-1" d="M395.99,659.15c-9.73-3.95-13.4-10.38-14.21-20.71-.8-10.25-1.29-48.04,1.56-56.2,5.24-14.99,28.15-14.98,33.38,0,2.85,8.16,2.37,45.95,1.56,56.2s-4.48,16.76-14.21,20.71h-8.1Z"/>
        <path class="cls-1" d="M400.03,570.99c7.04,0,14.08,3.75,16.69,11.24,2.85,8.16,2.37,45.95,1.56,56.2-.81,10.33-4.48,16.76-14.21,20.71h-8.1c-9.73-3.95-13.4-10.38-14.21-20.71-.8-10.25-1.29-48.04,1.56-56.2,2.62-7.49,9.65-11.24,16.69-11.24h0ZM400.03,558.99h0c-12.93,0-23.93,7.57-28.02,19.28-4.13,11.84-2.72,54.46-2.2,61.1,1.2,15.36,8.29,25.46,21.65,30.89l2.17.88h12.79l2.17-.88c13.37-5.43,20.45-15.54,21.65-30.89.52-6.64,1.94-49.26-2.2-61.1-4.09-11.71-15.09-19.28-28.02-19.28h0Z"/>
      </g>
      <g>
        <path class="cls-1" d="M399.99,536.03c-21.64,0-43.16-5.17-62.22-14.96-20.35-10.45-37.31-25.54-50.39-44.88-14.3-21.12-22.35-45.48-23.26-70.44-.86-23.46,4.49-47.1,15.48-68.35,10.96-21.19,27.08-39.17,46.64-51.99,20.78-13.63,45.14-21.11,70.44-21.65,1.02-.02,2.02-.03,3.03-.03,25.74,0,50.65,7.11,72.04,20.57,20.17,12.69,36.85,30.67,48.24,52.01,24,44.97,21.44,97.02-6.85,139.24-13.09,19.53-30.1,34.79-50.56,45.35-19.16,9.9-40.8,15.13-62.58,15.13h0ZM398.69,311.64c-3.43,0-6.93.18-10.4.53-25.95,2.64-48.88,17.2-62.92,39.95-14.93,24.2-17.85,54.37-7.82,80.72,15.57,40.88,52.65,55.44,82.15,55.44,18.7,0,37.14-5.61,51.92-15.79,16.12-11.1,27.61-27.29,33.22-46.8,8.06-27.99,3.17-56.69-13.43-78.74-16.89-22.45-43.4-35.32-72.72-35.32Z"/>
        <path class="cls-1" d="M399.7,269.73c102.77,0,166.66,115.6,108.45,202.48-25.83,38.54-67,57.82-108.16,57.82s-81.83-19.06-107.65-57.2c-57.47-84.87,2.69-200.91,104.45-203.07.98-.02,1.94-.03,2.9-.03M399.7,494.29c39.07,0,78.16-22.62,90.91-66.93,18.46-64.12-28.05-121.72-91.92-121.72-3.62,0-7.29.18-11.01.56-61.6,6.27-97.29,72.18-75.74,128.78,15.16,39.79,51.45,59.31,87.76,59.31M399.7,257.73c-1.05,0-2.1.01-3.16.03-26.43.56-51.88,8.39-73.61,22.63-20.42,13.39-37.25,32.15-48.68,54.26-11.46,22.17-17.04,46.83-16.14,71.32.96,26.09,9.36,51.53,24.29,73.59,13.66,20.18,31.36,35.94,52.62,46.85,19.91,10.22,42.37,15.62,64.96,15.62s45.32-5.46,65.34-15.8c21.37-11.03,39.13-26.96,52.79-47.34,14.99-22.38,23.32-48.03,24.08-74.19.71-24.52-5.14-49.14-16.92-71.22-11.88-22.26-29.28-41.02-50.34-54.26-22.35-14.06-48.37-21.49-75.24-21.49h0ZM399.7,482.29c-16.44,0-32.13-4.45-45.38-12.86-14.17-9.01-24.95-22.4-31.17-38.72-9.37-24.62-6.64-52.82,7.32-75.44,6.25-10.14,14.64-18.82,24.26-25.12,10.25-6.71,21.75-10.75,34.16-12.01,3.27-.33,6.57-.5,9.8-.5,27.42,0,52.18,12,67.93,32.92,7.49,9.95,12.44,21.21,14.71,33.48,2.41,13,1.65,26.46-2.25,39.99-5.23,18.16-15.9,33.21-30.86,43.52-13.79,9.5-31.02,14.73-48.52,14.73h0Z"/>
      </g>
      <g>
        <path class="cls-1" d="M146.33,387.23c3.44-3.23,9.7-4.98,14.34-5.4,10.76-.97,46.25-1.4,55.54,1.11,18.81,5.08,17.37,32.77-5.07,35.19-10.72,1.16-47.93,1.45-57.27-1.18-13.01-3.66-17.62-20.27-7.53-29.72Z"/>
        <path class="cls-1" d="M185.55,381.07c12.5,0,25.55.49,30.67,1.87,18.81,5.08,17.37,32.77-5.07,35.19-4.71.51-14.56.85-24.9.85-13.17,0-27.14-.55-32.37-2.03-13.01-3.66-17.62-20.27-7.53-29.72,3.44-3.23,9.7-4.98,14.34-5.4,4.83-.44,14.67-.76,24.87-.76h0ZM185.55,369.07v12-12c-10.3,0-20.49.32-25.95.81-3.19.29-14.17,1.76-21.47,8.59-7.82,7.32-10.97,17.91-8.43,28.32,2.55,10.47,10.56,18.79,20.91,21.71,7.27,2.05,23.39,2.48,35.63,2.48,10.73,0,21.01-.36,26.19-.92,18.48-1.99,27.74-15.52,28.73-28.04,1.12-14.28-7.85-26.89-21.81-30.66-5.62-1.52-16.99-2.29-33.79-2.29h0Z"/>
      </g>
      <g>
        <path class="cls-1" d="M412.84,146.33c3.23,3.44,4.98,9.7,5.4,14.34.97,10.76,1.4,46.25-1.11,55.54-5.08,18.81-32.77,17.37-35.19-5.07-1.1-10.2-1.43-48.65,1.17-57.28,3.86-12.8,20.16-17.74,29.73-7.53Z"/>
        <path class="cls-1" d="M400.43,140.85c4.41,0,8.87,1.7,12.41,5.48,3.23,3.44,4.98,9.7,5.4,14.34.97,10.76,1.4,46.25-1.11,55.54-2.34,8.66-9.47,13.03-16.72,13.03-8.5,0-17.16-6-18.46-18.1-1.1-10.2-1.43-48.65,1.17-57.28,2.43-8.07,9.8-13.01,17.32-13.01h0ZM400.43,128.85h0c-13.14,0-24.98,8.86-28.81,21.55-3.51,11.65-2.56,53.3-1.61,62.03.93,8.65,4.56,16,10.49,21.28,5.47,4.86,12.54,7.54,19.9,7.54,13.39,0,24.77-8.8,28.31-21.9,3.27-12.09,2.36-49.94,1.48-59.75-.29-3.19-1.76-14.17-8.59-21.47-5.6-5.98-13.12-9.28-21.17-9.28h0Z"/>
      </g>
      <g>
        <path class="cls-1" d="M530.34,515.65c5.11-.82,9.81.86,13.92,3.82,5.76,4.16,36.55,34.9,40.43,40.55,11.34,16.55-7.25,35.79-24.06,25.08-4.69-2.99-38.26-36.54-41.6-41.4-7.52-10.98-1.87-25.93,11.32-28.04Z"/>
        <path class="cls-1" d="M532.93,515.45c4.12,0,7.93,1.57,11.33,4.03,5.76,4.16,36.55,34.9,40.43,40.55,9.06,13.22-.99,28.17-13.98,28.17-3.26,0-6.71-.94-10.09-3.1-4.69-2.99-38.26-36.54-41.6-41.4-7.52-10.98-1.87-25.93,11.32-28.04.87-.14,1.74-.21,2.58-.21h0ZM532.93,503.45h0c-1.49,0-3,.12-4.48.36-10.03,1.61-18.38,8.08-22.35,17.32-4.12,9.59-2.98,20.57,3.04,29.35,2.76,4.03,14.79,16.21,21.72,23.12,12.45,12.41,20.3,19.69,23.33,21.62,5.11,3.26,10.83,4.98,16.54,4.98,10.91,0,20.9-6.09,26.07-15.9,5.2-9.86,4.37-21.47-2.2-31.06-4.93-7.19-36.79-38.8-43.3-43.5-5.79-4.18-11.97-6.29-18.35-6.29h0Z"/>
      </g>
      <g>
        <path class="cls-1" d="M225.69,212.01c5.11-.82,9.81.86,13.92,3.82,5.23,3.77,38.25,36.63,41.46,41.54,9.63,14.73-6.85,33.68-23.07,25.09-5.65-2.99-36.98-34.29-41.57-40.41-8.46-11.26-5.77-27.63,9.27-30.04Z"/>
        <path class="cls-1" d="M228.28,211.8c4.11,0,7.92,1.57,11.33,4.02,5.23,3.77,38.25,36.63,41.46,41.54,7.96,12.18-1.93,27.24-14.75,27.24-2.69,0-5.5-.66-8.32-2.15-5.65-2.99-36.98-34.29-41.57-40.41-8.46-11.26-5.77-27.63,9.27-30.04.88-.14,1.74-.21,2.59-.21h0ZM228.28,199.8c-1.49,0-3,.12-4.49.36-10.29,1.65-18.3,7.83-21.99,16.97-4.12,10.2-2.2,22.51,5.02,32.12,3.42,4.55,15.17,16.43,21.57,22.73,18.46,18.16,22.47,20.28,23.98,21.08,4.44,2.35,9.13,3.54,13.93,3.54,10.75,0,20.72-6.07,26.01-15.85,5.21-9.62,4.76-20.82-1.21-29.96-4.18-6.4-38.22-40.19-44.48-44.71-5.79-4.17-11.96-6.29-18.35-6.29h0Z"/>
      </g>
      <g>
        <path class="cls-1" d="M568.81,212.01c14.92-2.38,24.27,13.1,17.27,26.39-2.72,5.17-38.27,40.92-43.38,43.66-16.66,8.93-32.18-8.04-24.08-24.08,13.78-11.8,27.29-30.96,41.33-41.67,2.42-1.85,5.88-3.82,8.87-4.3Z"/>
        <path class="cls-1" d="M571.82,211.76c13.12,0,20.77,14.27,14.25,26.63-2.72,5.17-38.27,40.92-43.38,43.66-3.19,1.71-6.34,2.47-9.28,2.47-12.45,0-21.35-13.58-14.8-26.55,13.78-11.8,27.29-30.96,41.33-41.67,2.42-1.85,5.88-3.82,8.87-4.3,1.03-.16,2.04-.24,3.02-.24h0ZM571.83,199.76v12-12h0c-1.62,0-3.27.13-4.9.39-6.17.98-11.58,4.56-14.27,6.61-8.48,6.48-16.41,15.29-24.08,23.81-6.19,6.88-12.03,13.37-17.77,18.28l-1.82,1.56-1.08,2.14c-4.97,9.83-4.62,21.09.92,30.11,5.33,8.67,14.52,13.85,24.58,13.85,5.1,0,10.13-1.31,14.95-3.9,1.34-.72,5.42-2.91,25.43-23.04,20.02-20.14,22.19-24.25,22.9-25.6,5.22-9.9,5.02-21.31-.54-30.52-5.18-8.58-14.27-13.71-24.32-13.71h0Z"/>
      </g>
      <g>
        <path class="cls-1" d="M264.17,515.68c14.48-1.78,24.19,13.58,17.29,26.41l-42.42,42.6c-15.94,10.92-34.25-5.55-25.04-23.01,2.8-5.3,39.58-42.14,44.63-44.44,1.44-.66,3.98-1.36,5.55-1.55Z"/>
        <path class="cls-1" d="M266.45,515.54c13.19,0,21.54,14.41,15.01,26.56l-42.42,42.6c-3.56,2.44-7.24,3.51-10.71,3.51-12.04,0-21.49-12.96-14.33-26.53,2.8-5.3,39.58-42.14,44.63-44.44,1.44-.66,3.98-1.36,5.55-1.55.78-.1,1.54-.14,2.28-.14h0ZM266.45,503.54h0c-1.24,0-2.5.08-3.75.23-2.82.35-6.55,1.39-9.07,2.55-1.85.85-5.7,2.6-26.65,23.52-13.69,13.66-21.63,22.49-23.6,26.24-5.22,9.9-5.11,21.17.31,30.16,5.2,8.62,14.64,13.97,24.64,13.97,6.08,0,12.13-1.94,17.49-5.61l.93-.64.79-.8,42.42-42.6,1.24-1.24.83-1.54c5.15-9.57,4.94-20.79-.56-29.99-5.33-8.92-14.68-14.25-25.01-14.25h0Z"/>
      </g>
    </g>
  </g>
</svg>