<?xml version="1.0" encoding="UTF-8"?>
<svg id="Layer_2" data-name="Layer 2" xmlns="http://www.w3.org/2000/svg" viewBox="0 0 687.24 687.24">
  <defs>
    <style>
      .cls-1 {
        fill: #fff;
      }
    </style>
  </defs>
  <g id="Layer_1-2" data-name="Layer 1">
    <path class="cls-1" d="M343.62,87.82c-60.52,0-109.63,49.11-109.63,109.63s49.11,109.63,109.63,109.63,109.63-49.11,109.63-109.63-49.11-109.63-109.63-109.63Z"/>
    <path class="cls-1" d="M660.22,209.85c-17.31-40.92-42.08-77.66-73.62-109.21-31.55-31.54-68.29-56.31-109.21-73.62C434.99,9.09,389.99,0,343.62,0s-91.37,9.09-133.77,27.02c-40.92,17.31-77.66,42.08-109.21,73.62-31.54,31.55-56.31,68.29-73.62,109.21C9.09,252.25,0,297.25,0,343.62s9.09,91.37,27.02,133.77c17.31,40.92,42.08,77.66,73.62,109.21,31.55,31.54,68.29,56.31,109.21,73.62,42.4,17.93,87.4,27.02,133.77,27.02s91.37-9.09,133.77-27.02c40.92-17.31,77.66-42.08,109.21-73.62,31.54-31.55,56.31-68.29,73.62-109.21,17.93-42.4,27.02-87.4,27.02-133.77s-9.09-91.37-27.02-133.77ZM559.49,548.5c2.2-6.98,3.39-14.43,3.39-22.17v-18.27c0-91.07-73.38-164.44-164.45-164.44h-109.62c-91.07,0-164.45,73.37-164.45,164.44v18.27c0,7.74,1.19,15.19,3.39,22.17-50.67-53.36-81.75-125.5-81.75-204.88,0-164.37,133.25-297.62,297.62-297.62s297.62,133.25,297.62,297.62c0,79.38-31.08,151.52-81.75,204.88Z"/>
  </g>
</svg>