<?xml version="1.0" encoding="UTF-8"?>
<svg id="Layer_2" data-name="Layer 2" xmlns="http://www.w3.org/2000/svg" viewBox="0 0 276.82 69.39">
  <defs>
    <style>
      .cls-1 {
        isolation: isolate;
      }

      .cls-2 {
        fill: #fff;
      }
    </style>
  </defs>
  <g id="Layer_2-2" data-name="Layer 2">
    <g id="Layer_1-2" data-name="Layer 1-2">
      <g>
        <g class="cls-1">
          <g class="cls-1">
            <path class="cls-2" d="M9.3.73h6.22l9.41,26.13h-5.63l-1.78-5.38H7.38l-1.71,5.38H0L9.3.73ZM16.06,17.08l-3.63-11.12-3.63,11.12h7.27Z"/>
            <path class="cls-2" d="M29.33,25.01c-1.78-1.67-2.69-4.14-2.69-7.38V.65h5.42v16.39c0,4.03,1.53,5.82,5.05,5.82s5.09-1.75,5.09-5.82V.65h5.38v16.97c0,3.2-.91,5.71-2.69,7.38-1.78,1.71-4.4,2.58-7.74,2.58s-6.03-.87-7.81-2.58Z"/>
            <path class="cls-2" d="M52.85.73h10.25c8.03,0,11.92,4.29,11.92,13.08,0,4.8-1.45,8.51-4.25,10.72-1.02.8-2.22,1.42-3.56,1.78s-3.2.54-5.56.54h-8.8V.73ZM62.45,22.14c2.47,0,4.29-.65,5.42-1.96s1.67-3.45,1.67-6.36c0-5.85-2-8.5-6.43-8.5h-4.98v16.83h4.33Z"/>
            <path class="cls-2" d="M79.46.73h5.38v26.13h-5.38V.73Z"/>
            <path class="cls-2" d="M95.85,5.38h-7.74V.73h20.83v4.65h-7.71v21.48h-5.38V5.38Z"/>
            <path class="cls-2" d="M124.17,25.3c-1.85-1.53-2.87-3.71-3.02-6.51h5.31c.4,2.87,2.29,4.22,5.96,4.22,3.16,0,4.72-1.09,4.72-3.31,0-1.56-2.29-2.87-6.83-3.93l-.15-.04c-.07,0-.15-.04-.22-.07-.11,0-.22-.04-.33-.07-2.44-.51-4.18-1.13-5.23-1.78-1.85-1.2-2.83-3.2-2.83-5.92,0-2.54.87-4.51,2.58-5.85,1.71-1.35,4.22-2.04,7.49-2.04,3.05,0,5.42.73,7.16,2.18,1.74,1.45,2.65,3.49,2.73,6.11h-5.16c-.18-2.58-1.93-3.89-5.2-3.89-2.83,0-4.4,1.13-4.4,3.16,0,1.38,1.49,2.4,4.47,3.09l1.85.47c1.93.47,3.27.87,4.07,1.13.8.29,1.49.58,2.07.91,2.14,1.2,3.2,3.16,3.2,5.85s-.91,4.83-2.73,6.32c-1.85,1.49-4.43,2.25-7.78,2.25s-5.89-.76-7.74-2.29Z"/>
            <path class="cls-2" d="M152.01,5.38h-7.74V.73h20.83v4.65h-7.71v21.48h-5.38V5.38Z"/>
            <path class="cls-2" d="M172.41.73h6.21l9.41,26.13h-5.63l-1.78-5.38h-10.14l-1.71,5.38h-5.67L172.41.73ZM179.17,17.08l-3.63-11.12-3.63,11.12h7.27Z"/>
            <path class="cls-2" d="M193.71,5.38h-7.74V.73h20.83v4.65h-7.71v21.48h-5.38V5.38Z"/>
            <path class="cls-2" d="M210.06.73h5.38v26.13h-5.38V.73Z"/>
            <path class="cls-2" d="M223.37,23.84c-2.29-2.47-3.45-5.82-3.45-10.03s1.16-7.56,3.45-10.07c2.29-2.47,5.42-3.71,9.3-3.71s7.01,1.24,9.34,3.71c2.29,2.51,3.45,5.85,3.45,10.07s-1.16,7.56-3.45,10.03c-2.33,2.51-5.45,3.74-9.34,3.74s-7.01-1.24-9.3-3.74ZM238.09,20.5c1.27-1.56,1.93-3.78,1.93-6.69s-.65-5.12-1.93-6.69c-1.31-1.6-3.09-2.4-5.42-2.4s-4.07.8-5.34,2.36c-1.27,1.6-1.93,3.85-1.93,6.72s.65,5.12,1.93,6.69c1.27,1.6,3.05,2.4,5.34,2.4s4.11-.8,5.42-2.4Z"/>
            <path class="cls-2" d="M249.72.73h5.63l10.61,17.96V.73h5.31v26.13h-5.56l-10.69-17.96v17.96h-5.31V.73Z"/>
          </g>
        </g>
        <g class="cls-1">
          <g class="cls-1">
            <path class="cls-2" d="M.06,63.71v-19.19h12.15v1.58H1.82v6.95h9.42v1.58H1.82v9.1H.06Z"/>
            <path class="cls-2" d="M15.84,51.41c1.11-1.26,2.66-1.9,4.68-1.9s3.6.64,4.72,1.9c1.11,1.28,1.67,3.08,1.67,5.39s-.56,4.09-1.67,5.36c-1.11,1.26-2.68,1.9-4.72,1.9s-3.57-.64-4.68-1.9c-1.11-1.26-1.67-3.05-1.67-5.36s.56-4.12,1.67-5.39ZM17.06,61.13c.82,1.03,1.97,1.54,3.45,1.54,3.01,0,4.7-2.11,4.7-5.86s-1.69-5.88-4.7-5.88-4.69,2.14-4.69,5.88c0,1.86.42,3.3,1.24,4.33Z"/>
            <path class="cls-2" d="M29.76,63.71v-13.85h1.55v2.42c.79-1.86,2.2-2.78,4.27-2.78h.18v1.68h-.21c-2.76,0-4.14,1.64-4.14,4.89v7.64h-1.65Z"/>
            <path class="cls-2" d="M43.14,63.71l7.28-19.19h2.11l7.28,19.19h-1.85l-2.18-5.9h-8.6l-2.22,5.9h-1.84ZM47.75,56.27h7.44l-3.73-9.88-3.71,9.88Z"/>
            <path class="cls-2" d="M72.63,58.93c-.14,1.59-.73,2.84-1.76,3.75-1.03.92-2.36,1.38-4,1.38-1.88,0-3.35-.64-4.43-1.93s-1.63-3.04-1.63-5.25.55-4.09,1.65-5.41c1.09-1.32,2.59-1.97,4.51-1.97,1.55,0,2.84.43,3.84,1.3s1.54,2.03,1.62,3.45h-1.54c-.13-1-.55-1.81-1.26-2.42s-1.6-.91-2.66-.91c-1.38,0-2.48.52-3.28,1.56-.82,1.04-1.23,2.46-1.23,4.25s.42,3.28,1.24,4.35c.82,1.07,1.92,1.6,3.3,1.6,1.08,0,1.98-.34,2.7-1,.72-.67,1.16-1.59,1.33-2.76h1.6Z"/>
            <path class="cls-2" d="M86.41,58.93c-.14,1.59-.73,2.84-1.76,3.75-1.03.92-2.36,1.38-4,1.38-1.88,0-3.35-.64-4.43-1.93s-1.63-3.04-1.63-5.25.55-4.09,1.65-5.41c1.09-1.32,2.59-1.97,4.51-1.97,1.55,0,2.84.43,3.84,1.3s1.54,2.03,1.62,3.45h-1.54c-.13-1-.55-1.81-1.26-2.42s-1.6-.91-2.66-.91c-1.38,0-2.48.52-3.28,1.56-.82,1.04-1.23,2.46-1.23,4.25s.42,3.28,1.24,4.35c.82,1.07,1.92,1.6,3.3,1.6,1.08,0,1.98-.34,2.7-1,.72-.67,1.16-1.59,1.33-2.76h1.6Z"/>
            <path class="cls-2" d="M90.03,51.41c1.11-1.26,2.66-1.9,4.68-1.9s3.6.64,4.72,1.9c1.11,1.28,1.67,3.08,1.67,5.39s-.56,4.09-1.67,5.36c-1.11,1.26-2.68,1.9-4.72,1.9s-3.57-.64-4.68-1.9c-1.11-1.26-1.67-3.05-1.67-5.36s.56-4.12,1.67-5.39ZM91.26,61.13c.82,1.03,1.97,1.54,3.45,1.54,3.01,0,4.7-2.11,4.7-5.86s-1.69-5.88-4.7-5.88-4.69,2.14-4.69,5.88c0,1.86.42,3.3,1.24,4.33Z"/>
            <path class="cls-2" d="M114.79,49.86v13.85h-1.55v-2.21c-1.06,1.76-2.55,2.59-4.64,2.59-3.13,0-4.7-1.64-4.7-4.91v-9.32h1.6v8.94c0,1.38.26,2.36.78,2.95.52.59,1.39.87,2.61.87,1.33,0,2.38-.4,3.15-1.22.77-.81,1.15-1.92,1.15-3.34v-8.2h1.6Z"/>
            <path class="cls-2" d="M118.39,63.71v-13.85h1.55v2.21c1.04-1.71,2.57-2.57,4.59-2.57,1.92,0,3.4.7,4.17,1.96.2.33.34.7.43,1.16.09.46.13,1.21.13,2.25v8.83h-1.66v-8.59c0-1.63-.25-2.72-.74-3.31-.51-.57-1.38-.86-2.65-.86s-2.32.4-3.06,1.23c-.76.82-1.13,1.94-1.13,3.36v8.17h-1.63Z"/>
            <path class="cls-2" d="M134.89,45.88v3.97h2.57v1.3h-2.57v10.1c0,1.19.25,1.46,1.02,1.46.33,0,.65-.04,1.54-.23v1.28c-.77.21-1.39.3-1.97.3-.79,0-1.37-.2-1.69-.61-.33-.4-.5-1.13-.5-2.19v-10.1h-1.89v-1.3h1.89v-3.97h1.6Z"/>
            <path class="cls-2" d="M140.18,46.93v-2.41h1.59v2.41h-1.59ZM140.18,63.71v-13.85h1.59v13.85h-1.59Z"/>
            <path class="cls-2" d="M145.51,63.71v-13.85h1.55v2.21c1.04-1.71,2.57-2.57,4.59-2.57,1.92,0,3.4.7,4.17,1.96.2.33.34.7.43,1.16.09.46.13,1.21.13,2.25v8.83h-1.66v-8.59c0-1.63-.25-2.72-.74-3.31-.51-.57-1.38-.86-2.65-.86s-2.32.4-3.06,1.23c-.76.82-1.13,1.94-1.13,3.36v8.17h-1.63Z"/>
            <path class="cls-2" d="M171.78,49.86v13.13c0,4.22-2.24,6.4-6.57,6.4-1.62,0-2.92-.37-3.91-1.08-1-.73-1.55-1.72-1.64-2.97h1.64c.2,1.68,1.55,2.62,3.88,2.62,3.34,0,5.02-1.67,5.02-4.91v-1.71c-1.13,1.84-2.74,2.75-4.83,2.75-1.9,0-3.4-.65-4.5-1.96-1.09-1.29-1.64-3.08-1.64-5.33s.56-4.01,1.67-5.33c1.11-1.32,2.59-1.97,4.47-1.97,2.14,0,3.73.93,4.81,2.75v-2.4h1.6ZM162.19,61.12c.82,1.05,1.97,1.58,3.41,1.58s2.65-.52,3.47-1.55c.82-1.03,1.24-2.48,1.24-4.34,0-3.74-1.72-5.88-4.7-5.88s-4.67,2.11-4.67,5.88c0,1.84.42,3.27,1.25,4.31Z"/>
            <path class="cls-2" d="M181.9,57.9h1.76c.04,3.02,1.99,4.77,5.4,4.77,1.5,0,2.67-.34,3.53-1.02.85-.67,1.28-1.59,1.28-2.78,0-1.09-.3-1.93-.9-2.5-.6-.57-1.8-1.09-3.58-1.55l-1.82-.46c-1.97-.51-3.32-1.15-4.07-1.93-.75-.77-1.13-1.86-1.13-3.27,0-1.55.57-2.8,1.71-3.74,1.13-.94,2.66-1.41,4.56-1.41,2.02,0,3.6.51,4.73,1.54,1.13,1.03,1.71,2.46,1.73,4.3h-1.79c-.05-2.72-1.77-4.27-4.76-4.27-2.81,0-4.43,1.33-4.43,3.64,0,1.76.92,2.7,3.26,3.28l2.24.56c2.21.56,3.77,1.26,4.67,2.11.9.85,1.34,2.02,1.34,3.52,0,1.72-.59,3.08-1.76,4.07-1.19.99-2.79,1.49-4.83,1.49-4.57,0-7.13-2.21-7.13-6.22v-.13Z"/>
            <path class="cls-2" d="M199.57,57.09v.08c0,1.69.4,3.04,1.22,4.04s1.92,1.51,3.28,1.51c1.08,0,1.99-.3,2.72-.89.73-.59,1.17-1.38,1.33-2.4h1.6c-.17,1.41-.78,2.53-1.82,3.38-1.04.85-2.36,1.28-3.94,1.28-1.89,0-3.36-.64-4.43-1.92-1.07-1.28-1.6-3.05-1.6-5.32s.53-4.12,1.62-5.41c1.07-1.29,2.55-1.94,4.47-1.94s3.31.61,4.35,1.85c1.03,1.24,1.55,2.97,1.55,5.2v.53h-10.36ZM208.27,55.81c-.06-1.53-.48-2.74-1.24-3.61-.77-.87-1.77-1.3-3.04-1.3s-2.29.44-3.09,1.33c-.79.89-1.24,2.07-1.32,3.57h8.68Z"/>
            <path class="cls-2" d="M212.77,63.71v-13.85h1.55v2.42c.79-1.86,2.2-2.78,4.27-2.78h.18v1.68h-.21c-2.76,0-4.14,1.64-4.14,4.89v7.64h-1.65Z"/>
            <path class="cls-2" d="M224.47,63.71l-5.21-13.85h1.73l4.43,11.9,4.35-11.9h1.65l-5.17,13.85h-1.79Z"/>
            <path class="cls-2" d="M233.49,46.93v-2.41h1.59v2.41h-1.59ZM233.49,63.71v-13.85h1.59v13.85h-1.59Z"/>
            <path class="cls-2" d="M249.95,58.93c-.14,1.59-.73,2.84-1.76,3.75-1.03.92-2.36,1.38-4,1.38-1.88,0-3.35-.64-4.43-1.93s-1.63-3.04-1.63-5.25.55-4.09,1.66-5.41c1.09-1.32,2.59-1.97,4.51-1.97,1.55,0,2.84.43,3.84,1.3s1.54,2.03,1.62,3.45h-1.54c-.13-1-.55-1.81-1.26-2.42s-1.6-.91-2.66-.91c-1.38,0-2.48.52-3.28,1.56-.82,1.04-1.22,2.46-1.22,4.25s.42,3.28,1.24,4.35,1.92,1.6,3.3,1.6c1.08,0,1.98-.34,2.7-1,.72-.67,1.16-1.59,1.33-2.76h1.6Z"/>
            <path class="cls-2" d="M253.53,57.09v.08c0,1.69.4,3.04,1.22,4.04.82,1,1.92,1.51,3.29,1.51,1.08,0,1.99-.3,2.72-.89.73-.59,1.17-1.38,1.33-2.4h1.6c-.17,1.41-.78,2.53-1.82,3.38-1.04.85-2.36,1.28-3.94,1.28-1.89,0-3.36-.64-4.43-1.92-1.07-1.28-1.6-3.05-1.6-5.32s.54-4.12,1.62-5.41c1.07-1.29,2.55-1.94,4.47-1.94s3.31.61,4.35,1.85c1.03,1.24,1.55,2.97,1.55,5.2v.53h-10.36ZM262.24,55.81c-.07-1.53-.48-2.74-1.24-3.61-.77-.87-1.77-1.3-3.04-1.3s-2.29.44-3.09,1.33c-.79.89-1.24,2.07-1.32,3.57h8.68Z"/>
            <path class="cls-2" d="M267.75,59.4c.04.95.4,1.73,1.09,2.32.68.6,1.55.9,2.62.9,2.31,0,3.73-.98,3.73-2.54,0-1.12-1.22-1.98-3.69-2.57h-.07c-1.98-.5-3.31-1.02-3.97-1.59-.68-.57-1.02-1.37-1.02-2.4,0-1.19.44-2.16,1.33-2.91.87-.74,2.02-1.11,3.44-1.11,1.55,0,2.79.39,3.71,1.16.93.78,1.43,1.86,1.53,3.25h-1.63c-.14-1.88-1.46-2.98-3.64-2.98-1.89,0-3.11.95-3.11,2.37,0,1.24,1.26,2.15,3.78,2.74.33.08.57.13.74.17,1.58.39,2.68.87,3.3,1.46.61.59.92,1.39.92,2.45,0,1.17-.48,2.12-1.45,2.87-.98.74-2.25,1.11-3.83,1.11s-2.89-.43-3.87-1.28c-.98-.85-1.49-1.99-1.53-3.41h1.6Z"/>
          </g>
        </g>
      </g>
    </g>
  </g>
</svg>